PathFileType   4   (X/Y/Z)
DataRate	CameraRate	NumFrames	NumMarkers	Units	OrigDataRate	OrigDataStartFrame	OrigNumFrames
120.0	120.0	10	37	mm	120.0	106	168
Frame#	Time	midhip	hip_r	hip_l	knee_r	knee_l	ankle_r	ankle_l	midasis	asis_r	asis_l	psis_r	psis_l	epicondLat_r	epicondLat_l	epicondMed_r	epicondMed_l	malleolusLat_r	malleolusLat_l	malleolusMedv_r	malleolusMedv_l	neck	subclavicle_r	subclavicle_l	sternalnotch	xyphoidprocess	thighwand_r	thighwand_l	upperleg1_r	upperleg1_l	upperleg2_r	upperleg2_l	shankwand_r	shankwand_l	lowerleg1_r	lowerleg1_l	toe_r	toe_l
 	 	X1	Y1	Z1	X2	Y2	Z2	X3	Y3	Z3	X4	Y4	Z4	X5	Y5	Z5	X6	Y6	Z6	X7	Y7	Z7	X8	Y8	Z8	X9	Y9	Z9	X10	Y10	Z10	X11	Y11	Z11	X12	Y12	Z12	X13	Y13	Z13	X14	Y14	Z14	X15	Y15	Z15	X16	Y16	Z16	X17	Y17	Z17	X18	Y18	Z18	X19	Y19	Z19	X20	Y20	Z20	X21	Y21	Z21	X22	Y22	Z22	X23	Y23	Z23	X24	Y24	Z24	X25	Y25	Z25	X26	Y26	Z26	X27	Y27	Z27	X28	Y28	Z28	X29	Y29	Z29	X30	Y30	Z30	X31	Y31	Z31	X32	Y32	Z32	X33	Y33	Z33	X34	Y34	Z34	X35	Y35	Z35	X36	Y36	Z36	X37	Y37	Z37

	106	1.15833	642.524	829.708	-232.172	632.359	807.455	-158.987	618.002	805.430	-310.422	661.423	442.469	-179.852	613.642	418.518	-361.454	682.824	66.090	-208.086	351.971	182.111	-339.561	716.097	879.505	-241.247	723.428	881.015	-122.499	708.766	877.994	-359.995	521.759	943.171	-195.976	515.135	936.674	-250.450	669.798	439.858	-122.520	621.813	425.936	-418.395	654.175	443.012	-224.194	655.390	415.229	-299.916	667.061	62.450	-171.504	337.201	195.238	-374.340	691.670	79.909	-240.156	366.971	180.885	-316.118	590.905	1382.278	-224.819	715.653	1317.078	-186.313	708.382	1313.087	-290.911	708.372	1312.077	-237.548	745.723	1241.154	-241.434	808.859	587.058	-199.597	665.035	567.615	-488.697	749.435	633.067	-133.512	606.651	604.106	-420.287	741.516	544.801	-134.923	620.408	517.946	-420.563	650.734	136.929	-93.974	508.144	194.979	-356.346	652.736	148.338	-136.090	477.398	225.523	-357.148	781.499	40.610	-177.371	378.696	77.610	-360.714
	107	1.16667	646.381	829.932	-231.524	636.139	807.483	-158.148	622.133	805.599	-309.617	663.436	442.600	-179.533	624.522	418.664	-362.021	682.917	65.971	-207.932	362.075	183.244	-340.005	719.995	879.699	-240.140	727.055	881.097	-121.304	712.936	878.302	-358.977	525.389	943.180	-195.400	518.863	936.693	-249.874	671.736	439.860	-122.195	632.499	426.423	-418.943	657.505	442.830	-223.995	666.831	414.863	-301.676	667.058	62.395	-171.385	347.456	196.279	-374.882	691.529	79.410	-240.047	376.891	182.650	-316.343	595.082	1382.397	-223.191	719.890	1317.125	-184.233	712.813	1313.061	-289.673	712.714	1312.040	-236.214	750.057	1241.160	-239.665	811.864	586.747	-198.931	673.193	568.663	-488.977	752.557	632.721	-133.227	614.600	603.913	-420.262	744.741	544.881	-134.653	629.738	518.036	-421.319	650.961	136.948	-93.856	518.215	195.753	-356.335	652.845	148.318	-136.247	487.442	226.947	-357.717	781.419	40.615	-177.238	390.244	79.438	-360.097
	108	1.17500	650.245	830.174	-230.769	639.865	807.506	-157.364	626.230	805.795	-308.870	665.490	442.666	-179.291	635.358	418.931	-362.467	683.037	65.837	-207.835	372.597	183.776	-340.458	723.846	879.911	-239.063	730.618	881.170	-120.144	717.074	878.652	-357.982	528.997	943.176	-194.813	522.584	936.710	-249.308	673.683	439.795	-121.944	643.125	426.999	-419.376	659.829	443.396	-224.397	677.162	416.481	-300.887	667.066	62.328	-171.329	358.117	196.683	-375.440	691.911	78.990	-239.931	387.448	183.841	-316.752	599.184	1382.644	-222.305	724.141	1317.387	-182.610	717.024	1312.950	-288.425	717.019	1312.048	-234.845	754.250	1241.210	-237.981	814.916	586.430	-198.247	681.266	569.754	-489.185	755.446	632.526	-132.400	622.292	604.284	-420.743	747.236	544.508	-134.295	638.683	518.026	-421.219	651.164	136.950	-93.771	528.667	196.415	-356.248	653.184	148.228	-136.443	497.862	227.746	-357.769	781.324	40.615	-177.082	402.795	80.955	-359.462
	109	1.18333	654.033	830.301	-229.928	643.544	807.533	-156.650	630.309	806.033	-308.193	667.609	442.678	-179.100	646.137	419.321	-362.783	683.177	65.699	-207.801	383.543	183.714	-340.894	727.659	880.152	-238.020	734.121	881.241	-119.017	721.197	879.063	-357.023	532.598	943.172	-194.214	526.302	936.734	-248.751	675.655	439.679	-121.739	653.684	427.662	-419.681	660.096	445.785	-225.009	688.208	417.770	-300.739	667.087	62.259	-171.342	369.197	196.442	-375.996	692.598	78.552	-239.905	398.274	184.827	-316.991	603.615	1382.920	-222.190	728.735	1317.461	-181.425	721.151	1312.911	-287.431	721.294	1312.115	-233.463	758.429	1241.146	-236.948	818.015	586.081	-197.518	689.270	570.894	-489.322	758.872	632.294	-131.037	629.672	604.599	-420.617	749.088	544.476	-133.771	647.646	518.361	-421.060	651.361	136.934	-93.720	539.546	196.958	-356.028	653.743	148.319	-136.856	508.749	228.078	-357.822	781.217	40.608	-176.916	416.225	82.111	-358.862
	110	1.19167	657.926	830.531	-229.120	647.195	807.563	-156.013	634.380	806.328	-307.595	669.789	442.663	-178.940	656.839	419.827	-362.965	683.345	65.561	-207.815	394.919	183.088	-341.302	731.450	880.429	-237.016	737.585	881.306	-117.924	725.314	879.552	-356.108	536.202	943.175	-193.603	530.018	936.775	-248.199	677.652	439.545	-121.560	664.169	428.404	-419.857	661.729	447.083	-225.385	699.266	417.846	-302.088	667.129	62.190	-171.405	380.714	195.579	-376.547	692.897	78.213	-240.062	409.476	185.012	-317.349	607.935	1383.212	-222.216	733.205	1317.424	-180.105	725.496	1312.866	-286.403	725.542	1312.217	-232.140	762.655	1241.024	-235.793	821.143	585.685	-196.734	697.224	572.078	-489.385	762.172	632.203	-130.421	637.115	604.451	-420.098	751.340	544.499	-133.396	656.491	519.010	-421.366	651.572	136.899	-93.713	550.878	197.373	-355.636	654.153	148.530	-137.307	519.929	228.196	-357.774	781.107	40.597	-176.749	430.400	82.882	-358.367
	111	1.20000	661.498	830.429	-228.307	650.833	807.589	-155.455	638.442	806.689	-307.074	671.998	442.651	-178.795	667.449	420.432	-363.018	683.550	65.420	-207.838	406.737	181.947	-341.678	735.226	880.742	-236.054	741.033	881.352	-116.875	729.419	880.133	-355.234	539.805	943.190	-192.980	533.730	936.844	-247.652	679.650	439.423	-121.393	674.578	429.207	-419.905	665.736	446.011	-225.338	709.992	418.788	-302.725	667.206	62.120	-171.479	392.688	194.137	-377.090	693.230	78.037	-240.156	421.352	184.594	-317.995	612.283	1383.609	-219.643	737.075	1317.654	-178.639	729.758	1313.000	-284.685	729.760	1312.324	-230.889	766.610	1241.150	-233.998	824.276	585.238	-195.907	705.152	573.301	-489.369	764.474	632.475	-130.443	644.651	604.688	-419.863	753.901	543.984	-132.986	665.305	519.878	-421.505	651.822	136.844	-93.765	562.661	197.655	-355.055	654.634	148.500	-137.458	531.666	228.117	-357.433	781.005	40.583	-176.592	445.195	83.268	-358.047
	112	1.20833	665.004	830.312	-227.639	654.466	807.607	-154.964	642.484	807.118	-306.618	674.203	442.665	-178.663	677.955	421.117	-362.944	683.803	65.269	-207.828	419.011	180.335	-342.023	738.990	881.084	-235.131	744.478	881.366	-115.876	733.502	880.802	-354.385	543.397	943.224	-192.354	537.429	936.949	-247.107	681.622	439.337	-121.236	684.910	430.057	-419.828	668.225	445.891	-225.867	720.848	420.949	-302.396	667.330	62.044	-171.520	405.133	192.166	-377.624	694.169	77.904	-239.934	433.853	183.597	-318.569	616.379	1383.812	-218.265	741.208	1317.951	-177.416	733.824	1313.372	-283.109	733.953	1312.432	-229.697	770.762	1241.510	-232.674	827.371	584.735	-195.054	713.074	574.554	-489.277	767.173	632.379	-130.277	652.031	605.569	-419.792	755.952	543.043	-132.780	674.236	520.868	-421.305	652.133	136.770	-93.894	574.870	197.806	-354.292	655.487	148.301	-137.276	543.823	228.095	-357.160	780.921	40.570	-176.454	460.510	83.288	-357.965
	113	1.21667	668.727	830.496	-227.128	658.087	807.616	-154.525	646.491	807.605	-306.210	676.373	442.714	-178.560	688.342	421.869	-362.754	684.113	65.103	-207.760	431.744	178.292	-342.337	742.735	881.443	-234.238	747.921	881.345	-114.930	737.550	881.541	-353.547	546.964	943.281	-191.737	541.110	937.096	-246.568	683.542	439.289	-121.107	695.161	430.947	-419.632	670.949	445.232	-226.579	731.621	422.360	-302.342	667.511	61.959	-171.504	418.050	189.717	-378.141	694.893	77.883	-239.649	446.564	181.923	-318.884	619.792	1384.620	-217.939	745.587	1317.961	-176.508	737.984	1313.595	-282.211	738.117	1312.554	-228.557	774.886	1241.568	-231.976	830.369	584.169	-194.182	721.007	575.831	-489.125	769.349	631.206	-129.994	659.510	606.240	-419.266	757.939	542.442	-132.546	683.132	521.493	-420.971	652.511	136.675	-94.105	587.475	197.836	-353.381	656.136	148.211	-136.941	556.154	227.737	-356.658	780.865	40.559	-176.339	476.290	82.980	-358.164
	114	1.22500	672.114	830.372	-226.502	661.686	807.618	-154.118	650.451	808.136	-305.829	678.487	442.783	-178.506	698.596	422.672	-362.464	684.469	64.936	-207.650	444.922	175.851	-342.619	746.456	881.804	-233.366	751.359	881.286	-114.029	741.553	882.322	-352.703	550.497	943.363	-191.141	544.775	937.288	-246.041	685.389	439.258	-121.026	705.325	431.869	-419.334	675.333	443.796	-226.983	741.438	422.658	-302.907	667.741	61.879	-171.445	431.415	186.839	-378.630	695.092	77.953	-239.472	459.468	179.851	-319.299	623.631	1385.652	-217.142	749.723	1317.858	-175.709	742.102	1313.450	-281.088	742.256	1312.673	-227.493	778.555	1241.240	-230.948	833.232	583.552	-193.296	728.967	577.123	-488.921	770.539	629.881	-129.173	667.288	606.466	-418.620	760.356	542.688	-131.909	691.709	522.013	-420.859	652.951	136.556	-94.387	600.442	197.754	-352.377	656.458	148.205	-136.580	568.713	226.896	-355.758	780.842	40.549	-176.252	492.509	82.386	-358.655
	115	1.23333	675.428	830.272	-225.756	665.254	807.617	-153.720	654.353	808.693	-305.453	680.542	442.846	-178.508	708.709	423.513	-362.097	684.828	64.792	-207.550	458.521	173.046	-342.870	750.149	882.154	-232.504	754.789	881.195	-113.164	745.509	883.114	-351.844	554.006	943.473	-190.575	548.435	937.523	-245.530	687.163	439.216	-121.001	715.406	432.819	-418.952	677.420	444.796	-227.307	750.098	424.171	-302.410	667.994	61.823	-171.387	445.190	183.583	-379.081	695.145	77.895	-239.377	473.310	177.349	-319.585	628.502	1386.076	-215.698	753.931	1317.896	-174.844	746.233	1313.541	-279.927	746.390	1312.767	-226.519	782.388	1241.159	-229.964	835.962	582.914	-192.397	736.973	578.430	-488.669	773.293	629.647	-128.197	674.727	606.772	-419.037	762.680	542.896	-131.412	700.037	522.826	-420.916	653.452	136.408	-94.725	613.740	197.569	-351.348	656.768	148.127	-136.357	581.503	226.403	-354.798	780.855	40.537	-176.197	509.152	81.545	-359.427
